<svg xmlns="http://www.w3.org/2000/svg" viewBox="0 0 30 29.999">
  <defs>
    <style>
      .cls-1, .cls-3 {
        fill: #004dfd;
      }

      .cls-2, .cls-3 {
        stroke: none;
      }
    </style>
  </defs>
  <g id="Path_2" data-name="Path 2" class="cls-1">
    <path class="cls-2" d="M 28.46984481811523 28.49863624572754 L 1.499998211860657 28.49863624572754 L 1.499998211860657 1.568374276161194 C 3.013064384460449 1.667069673538208 5.5153489112854 1.906572580337524 8.333348274230957 2.485127210617065 C 12.4537181854248 3.331057071685791 18.12075805664062 5.094827175140381 21.71939849853516 8.693467140197754 C 23.28550910949707 10.25957679748535 24.61674880981445 12.32820701599121 25.6761474609375 14.84189701080322 C 26.54399871826172 16.90110778808594 27.23032760620117 19.25692749023438 27.71607780456543 21.84393692016602 C 28.23225975036621 24.5930061340332 28.40976715087891 27.02718353271484 28.46984481811523 28.49863624572754 Z"/>
    <path class="cls-3" d="M 26.87894439697266 26.99863624572754 C 26.77534484863281 25.64581871032715 26.5838737487793 23.92796325683594 26.23088836669922 22.0626277923584 C 25.51360893249512 18.27225685119629 23.96465873718262 13.06003761291504 20.65873908996582 9.754127502441406 C 17.33461761474609 6.430006980895996 11.98716831207275 4.771636962890625 8.086567878723145 3.965777158737183 C 6.166313171386719 3.569055318832397 4.394625663757324 3.334872961044312 2.999998331069946 3.196821451187134 L 2.999998331069946 26.99863624572754 L 26.87894439697266 26.99863624572754 M 29.99863815307617 29.99863624572754 L -1.754150389388087e-06 29.99863624572754 L -1.754150389388087e-06 -2.830810444720555e-06 C -1.754150389388087e-06 -2.830810444720555e-06 15.28039836883545 0.1331471651792526 22.78005790710449 7.63280725479126 C 30.27971839904785 15.13245677947998 29.99863815307617 29.99863624572754 29.99863815307617 29.99863624572754 Z"/>
  </g>
</svg>
